Coordinates
version=1
nRows=13
nColumns=22
inDegrees=yes

Units are S.I. units (second, meters, Newtons, ...)
If the header above contains a line with 'inDegrees', this indicates whether rotational values are in degrees (yes) or radians (no).

endheader
time	pelvis_tilt	pelvis_list	pelvis_rotation	pelvis_tx	pelvis_ty	pelvis_tz	hip_flexion_r	hip_adduction_r	hip_rotation_r	knee_angle_r	ankle_angle_r	subtalar_angle_r	hip_flexion_l	hip_adduction_l	hip_rotation_l	knee_angle_l	ankle_angle_l	subtalar_angle_l	lumbar_extension	lumbar_bending	lumbar_rotation
      4.78000000	      1.78872632	     -5.48682323	     -1.32578733	      0.64182697	      1.01239341	     -0.24460916	      7.33725754	     10.18501507	     -2.17660756	    -15.73091980	      6.07231766	     -4.46695629	     11.06364451	     -7.55353512	     -0.23058265	    -52.80788693	     11.54115017	     13.49421309	    -11.68071969	      6.47876096	      6.05085797
      4.79000000	      1.74408924	     -5.48086298	     -1.34703926	      0.64497077	      1.01260561	     -0.24410939	      7.07161783	     10.22560799	     -2.06327351	    -15.52410649	      6.15624507	     -4.52262008	     11.41766978	     -7.67657177	     -0.58337235	    -51.97230059	     12.11924511	     12.97898214	    -11.68296594	      6.46663830	      6.18193622
      4.80000000	      1.70815306	     -5.48451758	     -1.36565332	      0.64809744	      1.01280232	     -0.24363596	      6.79626742	     10.27293043	     -1.96627378	    -15.31516662	      6.25140743	     -4.58442275	     11.73150792	     -7.81917713	     -0.97804998	    -51.07399054	     12.64467931	     12.37805555	    -11.68778985	      6.46444044	      6.31005790
      4.81000000	      1.68267487	     -5.47825287	     -1.36431108	      0.65119688	      1.01301213	     -0.24322981	      6.49831481	     10.30641345	     -1.86804238	    -15.07819474	      6.32921921	     -4.65370296	     12.00212270	     -7.93473312	     -1.35483698	    -50.11015226	     13.08184307	     11.60362921	    -11.69655566	      6.45152984	      6.40514544
      4.82000000	      1.66209271	     -5.45950788	     -1.31868356	      0.65426524	      1.01322580	     -0.24294448	      6.18838981	     10.31964374	     -1.78192895	    -14.81902317	      6.39384266	     -4.72206625	     12.24722992	     -8.01074582	     -1.67704114	    -49.09743713	     13.41639859	     10.72232828	    -11.69982902	      6.43438854	      6.42583139
      4.83000000	      1.64425554	     -5.44619372	     -1.26642251	      0.65730413	      1.01341586	     -0.24271425	      5.88736812	     10.33378165	     -1.71327647	    -14.57884136	      6.47233192	     -4.78659219	     12.46641007	     -8.08474978	     -1.99406421	    -48.05787092	     13.72100245	      9.86777855	    -11.69765916	      6.42510164	      6.45574114
      4.84000000	      1.63420357	     -5.43155898	     -1.20604145	      0.66029420	      1.01360023	     -0.24254486	      5.59303376	     10.34084490	     -1.66834001	    -14.36032418	      6.57040643	     -4.85035871	     12.65250436	     -8.13925712	     -2.28036610	    -46.98944111	     14.01290026	      9.03674327	    -11.70219542	      6.41594121	      6.48824785
      4.85000000	      1.62650045	     -5.40389894	     -1.10005838	      0.66322455	      1.01378365	     -0.24249011	      5.29802157	     10.32733643	     -1.65009529	    -14.13066883	      6.64845006	     -4.90644606	     12.82600714	     -8.14351587	     -2.47020039	    -45.90041728	     14.27089544	      8.23617218	    -11.70302492	      6.39915359	      6.44144332
      4.86000000	      1.62795774	     -5.36788884	     -0.98060402	      0.66611557	      1.01396476	     -0.24251603	      5.00769242	     10.29771146	     -1.66627422	    -13.92276725	      6.74322572	     -4.95800683	     12.96839124	     -8.11335824	     -2.60533600	    -44.79370990	     14.54376277	      7.52723768	    -11.70833884	      6.37607811	      6.40321803
      4.87000000	      1.63526608	     -5.32428465	     -0.83355257	      0.66895210	      1.01414693	     -0.24263986	      4.71544745	     10.25444634	     -1.69730644	    -13.71320168	      6.82072133	     -5.00174679	     13.08999171	     -8.04106981	     -2.65342095	    -43.67562525	     14.81245247	      6.89891309	    -11.71645383	      6.35095429	      6.31671979
      4.88000000	      1.65010686	     -5.27021240	     -0.67331531	      0.67174155	      1.01432750	     -0.24283988	      4.42479469	     10.19496448	     -1.74528788	    -13.51490610	      6.90042889	     -5.04115502	     13.18365473	     -7.92870803	     -2.63059362	    -42.54694162	     15.08587665	      6.37175314	    -11.72805274	      6.31801224	      6.21566476
      4.89000000	      1.67060387	     -5.20794161	     -0.50364700	      0.67447965	      1.01450374	     -0.24310911	      4.13887173	     10.12257582	     -1.80534077	    -13.32987477	      6.97657766	     -5.07767956	     13.24974470	     -7.77866351	     -2.53502870	    -41.41186597	     15.36025664	      5.94793326	    -11.74329677	      6.27880512	      6.10253687
      4.90000000	      1.70576613	     -5.14718425	     -0.33597050	      0.67717100	      1.01469286	     -0.24342042	      3.84064155	     10.05130357	     -1.84172929	    -13.14648537	      7.03608120	     -5.11415593	     13.27356838	     -7.60677071	     -2.37673131	    -40.27264252	     15.62379906	      5.56609706	    -11.77405635	      6.24233153	      5.99302867
